PathFileType	4	(X/Y/Z)	/Users/itak/Documents/Research/Walk-IL/dataset/trc/00304_00010.trc
DataRate	CameraRate	NumFrames	NumMarkers	Units	OrigDataRate	OrigDataStartFrame	OrigNumFrames
100.000000	100.000000	4	56	mm	100.000000	337	540
Frame#	Time	RPSI			L3			STRN			T10			C7			CLAV			RBAK			LBAK			LSHO			LUPA			LAEL			LAOL			LWTS			LWPS			LFRA			LIFD			LHPS			LHTS			RSHO			RUPA			RAEL			RAOL			RWTS			RWPS			RFRA			RIFD			RHPS			RBHD			LFHD			RFHD			LBHD			LHIP			RHIP			RASI			LASI			LKNE			LTHI			LANK			LTIP			LTOE			LMT1			LMT5			LHEE			RKNE			RTHI			RANK			RTIP			RTOE			RMT1			RMT5			LPSI			RHEE			RHTS			*53			*54			*55			
		X1	Y1	Z1	X2	Y2	Z2	X3	Y3	Z3	X4	Y4	Z4	X5	Y5	Z5	X6	Y6	Z6	X7	Y7	Z7	X8	Y8	Z8	X9	Y9	Z9	X10	Y10	Z10	X11	Y11	Z11	X12	Y12	Z12	X13	Y13	Z13	X14	Y14	Z14	X15	Y15	Z15	X16	Y16	Z16	X17	Y17	Z17	X18	Y18	Z18	X19	Y19	Z19	X20	Y20	Z20	X21	Y21	Z21	X22	Y22	Z22	X23	Y23	Z23	X24	Y24	Z24	X25	Y25	Z25	X26	Y26	Z26	X27	Y27	Z27	X28	Y28	Z28	X29	Y29	Z29	X30	Y30	Z30	X31	Y31	Z31	X32	Y32	Z32	X33	Y33	Z33	X34	Y34	Z34	X35	Y35	Z35	X36	Y36	Z36	X37	Y37	Z37	X38	Y38	Z38	X39	Y39	Z39	X40	Y40	Z40	X41	Y41	Z41	X42	Y42	Z42	X43	Y43	Z43	X44	Y44	Z44	X45	Y45	Z45	X46	Y46	Z46	X47	Y47	Z47	X48	Y48	Z48	X49	Y49	Z49	X50	Y50	Z50	X51	Y51	Z51	X52	Y52	Z52	X53	Y53	Z53	X54	Y54	Z54	X55	Y55	Z55	X56	Y56	Z56	

338	3.37	111.0946426391602	975.0824584960938	392.874755859375	67.34251403808594	1026.8017578125	325.420166015625	209.1632995605469	1207.248291015625	136.8818969726562	58.35156631469727	1137.852661132812	343.5359802246094	58.10763168334961	1384.11767578125	299.8472900390625	159.5559692382812	1305.148071289062	179.8341522216797	96.31062316894531	1250.322143554688	388.4931640625	-33.98886108398438	1339.706298828125	252.8551483154297	-25.80806350708008	1344.343627929688	147.6086730957031	-105.7035064697266	1230.810546875	147.7086486816406	-134.6119079589844	1033.8544921875	172.87158203125	-97.97022247314453	1027.868774414062	251.4435729980469	-95.06731414794922	794.6275024414062	165.2377777099609	-166.9833679199219	797.1080322265625	173.9572906494141	-154.5617065429688	929.9679565429688	176.6819610595703	-129.3403625488281	619.4994506835938	214.6129760742188	-178.6769866943359	712.1961059570312	195.292236328125	-121.7129898071289	694.5253295898438	165.8400726318359	227.7041320800781	1370.484497070312	338.8999938964844	283.2692565917969	1311.870727539062	378.8850708007812	375.1096801757812	1053.926879882812	369.3297729492188	287.8458557128906	1026.83349609375	343.7347412109375	444.8030700683594	934.6574096679688	161.7887115478516	487.3143310546875	899.3472900390625	227.29638671875	415.8242492675781	1007.888305664062	329.4178466796875	500.9915161132812	794.2190551757812	55.66652679443359	529.3436279296875	827.9926147460938	148.4381713867188	146.8620758056641	1551.30029296875	314.3433837890625	96.36061859130859	1584.468994140625	109.402214050293	182.4674072265625	1587.299438476562	145.3005065917969	11.71268844604492	1537.86279296875	257.08642578125	-15.04983234405518	903.0108642578125	146.6698150634766	255.4023742675781	924.9739379882812	409.3221740722656	301.09912109375	920.9373779296875	277.0210876464844	121.7783126831055	913.8425903320312	95.84153747558594	177.6412506103516	474.4327087402344	42.96078109741211	108.3311920166016	599.845703125	59.42423248291016	254.3138885498047	39.98432159423828	57.64393997192383	208.3743896484375	244.3305053710938	44.18391799926758	421.9021301269531	60.24858474731445	-77.80310821533203	413.37158203125	40.89315414428711	1.238046526908875	315.8640441894531	46.55605316162109	-49.80735397338867	279.5572204589844	31.85737800598145	127.7652130126953	173.6714172363281	462.6518249511719	446.0451354980469	265.848876953125	708.2820434570312	396.4942016601562	-25.53850555419922	88.66893005371094	614.4300537109375	133.2970275878906	344.9473266601562	471.348388671875	49.89287567138672	38.56362152099609	441.70166015625	-14.11397838592529	46.87376022338867	454.3397216796875	48.54696655273438	36.86360168457031	555.67138671875	-5.78402853012085	952.7514038085938	264.9035949707031	-94.40384674072266	111.8215713500977	617.9231567382812	509.0584411621094	862.4683227539062	89.65377044677734	nan	nan	nan	nan	nan	nan	nan	nan	nan	
339	3.38	120.4419021606445	976.1461791992188	384.3037414550781	75.77408599853516	1027.408325195312	317.2138061523438	214.8441009521484	1209.2255859375	128.2541961669922	66.05117034912109	1138.626708984375	335.8643493652344	63.60902786254883	1384.908325195312	292.5892333984375	164.8460388183594	1306.802368164062	171.6248626708984	103.5201034545898	1251.278686523438	380.781982421875	-28.49316596984863	1340.062866210938	246.1373443603516	-20.92269897460938	1344.783935546875	140.8556365966797	-99.88608551025391	1230.805053710938	140.7397766113281	-127.6457290649414	1033.732543945312	165.1996154785156	-90.75880432128906	1027.893676757812	243.5341491699219	-87.90713500976562	794.4601440429688	157.7821044921875	-159.7420806884766	796.9271240234375	166.6072692871094	-147.4579010009766	929.8742065429688	169.0452270507812	-121.8415298461914	619.6563110351562	208.7099456787109	-171.4325866699219	712.1026000976562	188.5365142822266	-114.2881546020508	694.2403564453125	159.3045806884766	233.5604553222656	1372.629150390625	330.4800415039062	289.6132507324219	1314.14501953125	370.0635986328125	380.6302185058594	1055.968505859375	360.0403747558594	293.3092651367188	1029.248291015625	334.7412109375	449.4395446777344	934.3837280273438	153.5746154785156	491.9155883789062	899.5604858398438	219.3949584960938	421.0223999023438	1009.474853515625	320.3822021484375	504.8917541503906	792.8008422851562	48.70649719238281	533.4837646484375	827.2742309570312	141.1152801513672	151.252685546875	1552.620727539062	306.9120178222656	99.84078979492188	1585.937377929688	102.2518920898438	186.0607299804688	1589.01123046875	137.7872772216797	15.91562938690186	1538.8154296875	250.1685028076172	-8.863757133483887	906.2289428710938	139.2339324951172	264.4648132324219	924.7615356445312	399.1398010253906	308.2218627929688	921.317138671875	266.2586059570312	127.3391036987305	916.1165161132812	86.71756744384766	182.8925170898438	476.0190734863281	34.84714126586914	113.7734909057617	602.1209716796875	50.95283889770508	254.7792358398438	40.43125152587891	56.55385589599609	211.5468444824219	245.1016845703125	39.18544769287109	424.5053100585938	55.25593185424805	-78.11256408691406	414.8067321777344	38.38911819458008	1.514597177505493	317.7457275390625	44.52190780639648	-50.45317840576172	279.5789184570312	32.89261245727539	126.9273223876953	181.6048126220703	462.9042663574219	436.8480529785156	273.6113586425781	708.1290283203125	385.8842468261719	-22.25790786743164	94.02814483642578	612.1989135742188	140.2646789550781	346.2297058105469	464.6896667480469	50.0639762878418	38.61623001098633	441.6223754882812	-12.79557323455811	47.88242340087891	453.4651489257812	50.05234909057617	37.88094329833984	554.640380859375	1.781834363937378	955.2291259765625	257.5092163085938	-90.36457061767578	119.6636962890625	614.67333984375	513.252197265625	861.3095092773438	82.07527160644531	nan	nan	nan	nan	nan	nan	nan	nan	nan	
340	3.39	129.6647033691406	977.292236328125	375.7393493652344	84.17208862304688	1028.210083007812	309.0286560058594	220.3856811523438	1211.411499023438	119.5143661499023	73.71937561035156	1139.699096679688	328.3083190917969	69.15313720703125	1385.8935546875	285.3053588867188	170.0228271484375	1308.676635742188	163.3789367675781	110.8386535644531	1252.534912109375	373.0972900390625	-22.95691108703613	1340.657348632812	239.4889984130859	-16.06697463989258	1345.524291992188	134.1867218017578	-94.11676025390625	1231.128784179688	133.834716796875	-120.6880722045898	1033.941162109375	157.4355316162109	-83.58864593505859	1028.1572265625	235.5693206787109	-80.58122253417969	794.6533813476562	149.7595825195312	-152.3385314941406	797.0335083007812	158.7300567626953	-140.2755889892578	930.0892333984375	161.139892578125	-113.9925689697266	620.0534057617188	202.0151824951172	-163.9429168701172	712.254638671875	181.1157989501953	-106.6082916259766	694.2864379882812	152.0664215087891	239.4275512695312	1375.052978515625	321.8876037597656	296.0308532714844	1316.787109375	361.0511169433594	386.0798645019531	1058.35693359375	350.8342895507812	298.6912231445312	1032.050170898438	325.887939453125	453.9814453125	933.9719848632812	145.7195739746094	496.3316650390625	899.7245483398438	211.9398498535156	426.1305541992188	1011.301879882812	311.545654296875	508.5610961914062	790.8960571289062	42.51916885375977	537.42138671875	826.2951049804688	134.4783630371094	155.5953979492188	1554.048461914062	299.4757080078125	103.2785034179688	1587.562133789062	95.09877777099609	189.6075897216797	1590.8974609375	130.2809295654297	20.08427810668945	1539.842651367188	243.2221984863281	-2.809748888015747	909.3084716796875	131.9210662841797	273.4447021484375	924.7546997070312	388.8672180175781	315.1026611328125	922.0046997070312	255.4126281738281	132.7086334228516	918.5538940429688	77.58737182617188	187.9712371826172	477.6119995117188	26.71487045288086	119.1917037963867	604.5050048828125	42.36220932006836	255.0604400634766	40.79222106933594	55.44259643554688	214.4348449707031	245.8901214599609	34.25928497314453	426.7106018066406	50.87650299072266	-78.14173126220703	416.033447265625	36.48321151733398	1.958881258964539	319.3402099609375	42.84463500976562	-51.00288772583008	279.3506164550781	33.79446029663086	126.046875	190.3919830322266	463.0396118164062	427.0698547363281	281.6080322265625	708.1571044921875	375.0316162109375	-18.55215072631836	99.78643798828125	609.5113525390625	147.9956512451172	347.4936218261719	457.4836120605469	50.24114608764648	38.71134948730469	441.5960693359375	-11.26741695404053	49.04531860351562	452.4700622558594	51.77479934692383	39.14985656738281	553.496826171875	9.240086555480957	957.526611328125	250.0743560791016	-85.63932037353516	128.0036010742188	610.7542114257812	517.279541015625	859.7427978515625	75.07699584960938	nan	nan	nan	nan	nan	nan	nan	nan	nan	
341	3.4	138.6159973144531	978.4478149414062	367.1836853027344	92.43994140625	1029.20166015625	300.8778381347656	225.7828674316406	1213.729736328125	110.6882095336914	81.31459808349609	1140.999877929688	320.8406677246094	74.73414611816406	1387.015747070312	278.0002746582031	175.0924530029297	1310.704345703125	155.1110382080078	118.2145690917969	1254.019287109375	365.4181213378906	-17.3890380859375	1341.422485351562	232.8899230957031	-11.23984146118164	1346.494750976562	127.5846557617188	-88.41842651367188	1231.729858398438	127.0111465454102	-113.805290222168	1034.426879882812	149.645751953125	-76.47834777832031	1028.579711914062	227.6143951416016	-73.10240173339844	795.1655883789062	141.1773071289062	-144.7913665771484	797.376220703125	150.3499755859375	-133.0532531738281	930.5536499023438	153.0285186767578	-105.7897262573242	620.6259765625	194.4753723144531	-156.197265625	712.5953979492188	173.0314331054688	-98.70722961425781	694.6163940429688	144.0839080810547	245.2828521728516	1377.66943359375	313.1553344726562	302.5030212402344	1319.714111328125	351.8787231445312	391.48583984375	1061.019287109375	341.7355651855469	304.0057983398438	1035.161010742188	317.2000122070312	458.4145812988281	933.4082641601562	138.2074127197266	500.5762939453125	899.8382568359375	204.9045104980469	431.1707153320312	1013.308715820312	302.9175415039062	511.9914855957031	788.5086059570312	37.09573745727539	541.1650390625	825.0692138671875	128.4993438720703	159.8998260498047	1555.529052734375	292.0443420410156	106.6733627319336	1589.2783203125	87.95011138916016	193.1095428466797	1592.897338867188	122.7860412597656	24.23043060302734	1540.876953125	236.2593688964844	3.101231336593628	912.1550903320312	124.6350860595703	282.2004089355469	924.943603515625	378.6061096191406	321.7327880859375	922.9781494140625	244.6250457763672	137.9489593505859	921.0413818359375	68.49969482421875	192.7594757080078	479.0679931640625	18.74323272705078	124.5044326782227	606.8218383789062	33.80041122436523	255.1636352539062	41.05547714233398	54.3674201965332	217.0215301513672	246.6314544677734	29.47064399719238	428.4486999511719	47.06772994995117	-78.03173065185547	417.010009765625	35.08377838134766	2.453005790710449	320.568603515625	41.48202514648438	-51.47890853881836	278.9420166015625	34.55438232421875	125.1683349609375	200.0924072265625	462.9866943359375	416.6988525390625	289.8385314941406	708.3316040039062	364.0160827636719	-14.34122276306152	105.9690246582031	606.30810546875	156.5293121337891	348.6676330566406	449.6595764160156	50.45504379272461	38.82965850830078	441.6163940429688	-9.523880958557129	50.39061737060547	451.3474731445312	53.74255752563477	40.72819519042969	552.2522583007812	16.54431533813477	959.5993041992188	242.5567016601562	-80.13124847412109	136.813720703125	606.1529541015625	521.1270141601562	857.7718505859375	68.63579559326172	nan	nan	nan	nan	nan	nan	nan	nan	nan	
